<svg width="509" height="150" viewBox="0 0 509 150" fill="none"
    xmlns="http://www.w3.org/2000/svg">
    <path fill-rule="evenodd" clip-rule="evenodd" d="M230.282 108.498C230.116 108.245 229.811 108.119 229.513 108.178C229.214 108.238 228.983 108.475 228.929 108.772C226.718 120.988 223.321 130.79 219.302 136.708C216.25 141.193 212.767 143.532 209.195 143.532C205.243 143.532 201.386 140.636 198.102 135.156C191.811 124.649 187.292 104.235 186.699 80.3317C186.7 80.3317 186.698 80.3168 186.698 80.3168L186.688 79.8787L186.686 79.8267C186.651 78.2302 186.632 76.6188 186.632 75C186.632 73.3812 186.651 71.775 186.686 70.1836C187.226 46.0619 191.766 25.4243 198.102 14.8433C201.386 9.36016 205.243 6.46634 209.195 6.46634C212.767 6.46634 216.25 8.80618 219.302 13.295C223.321 19.2082 226.718 29.0109 228.929 41.2285C228.983 41.5277 229.214 41.7639 229.513 41.824C229.811 41.8842 230.116 41.7564 230.282 41.5017C230.805 40.6997 231.029 39.7017 230.834 38.6881C228.239 25.2438 224.201 14.4691 219.462 7.97302C215.581 2.65396 211.072 0 206.53 0C201.541 0 196.557 3.2562 192.412 9.70695C184.542 21.9527 178.979 46.5869 178.979 75C178.979 103.411 184.542 128.05 192.412 140.295C196.557 146.748 201.541 150 206.53 150C211.072 150 215.581 147.349 219.462 142.025C224.201 135.535 228.239 124.76 230.834 111.312C231.029 110.302 230.805 109.299 230.282 108.498Z" fill="#01BAC3"/>
    <path d="M379.89 128.591V147.289C379.89 147.676 379.63 147.869 379.118 147.869H376.653C376.14 147.869 375.88 147.676 375.88 147.289V128.591C375.88 128.205 376.14 128.012 376.653 128.012H379.118C379.63 128.012 379.89 128.205 379.89 128.591ZM482.626 128.591V147.289C482.626 147.676 482.373 147.869 481.861 147.869H479.388C478.876 147.869 478.623 147.676 478.623 147.289V128.591C478.623 128.205 478.876 128.012 479.388 128.012H481.861C482.373 128.012 482.626 128.205 482.626 128.591ZM445.527 147.869H425.804V128.012H445.527V130.069C445.527 130.455 445.274 130.648 444.762 130.648H429.814V139.708H443.054C443.574 139.708 443.826 139.901 443.826 140.28V141.765C443.826 142.151 443.574 142.344 443.054 142.344H429.814V145.232H444.762C445.274 145.232 445.527 145.426 445.527 145.812V147.869ZM452.143 147.869V128.012H463.876C466.4 128.012 468.39 128.554 469.831 129.638C471.279 130.723 471.999 132.215 471.999 134.109V141.772C471.999 143.666 471.279 145.158 469.831 146.242C468.39 147.327 466.4 147.869 463.876 147.869H452.143ZM350.069 147.869H330.212V128.012H333.45C333.962 128.012 334.222 128.205 334.222 128.591V145.151H349.296C349.809 145.151 350.069 145.359 350.069 145.767V147.869ZM320.351 128.012H323.596V141.772C323.596 143.695 322.883 145.195 321.45 146.265C320.024 147.334 318.049 147.869 315.524 147.869H311.863C309.338 147.869 307.348 147.334 305.908 146.265C304.46 145.195 303.739 143.695 303.739 141.772V128.012H306.977C307.489 128.012 307.742 128.205 307.742 128.591V141.653C307.742 144.037 309.264 145.232 312.301 145.232H315.027C318.101 145.232 319.638 144.037 319.638 141.653V128.591C319.638 128.205 319.876 128.012 320.351 128.012ZM360.569 147.869H358.096C357.583 147.869 357.331 147.676 357.331 147.289V130.648H350.232C349.682 130.648 349.408 130.455 349.408 130.069V128.012H369.264V130.069C369.264 130.455 368.989 130.648 368.44 130.648H361.341V147.289C361.341 147.676 361.081 147.869 360.569 147.869ZM291.903 128.012H297.116V147.869H293.937C293.418 147.869 293.165 147.676 293.165 147.289V131.651L284.44 147.334C284.217 147.69 283.89 147.869 283.452 147.869H280.816C280.341 147.869 280.029 147.69 279.881 147.334L270.984 131.621V147.289C270.984 147.676 270.747 147.869 270.272 147.869H267.086V128.012H272.306C272.633 128.012 272.856 128.124 272.96 128.339L281.967 144.534H282.242L291.242 128.339C291.316 128.124 291.539 128.012 291.903 128.012ZM492.056 147.869H488.588L495.494 128.591C495.643 128.205 495.984 128.012 496.534 128.012H500.492C501.041 128.012 501.39 128.205 501.532 128.591L508.445 147.869H504.918C504.828 147.869 504.747 147.861 504.665 147.839C504.546 147.809 504.435 147.75 504.353 147.668C504.309 147.624 504.279 147.579 504.249 147.527C504.205 147.453 504.168 147.379 504.145 147.289L498.517 130.827L492.881 147.289C492.851 147.371 492.814 147.453 492.762 147.527C492.695 147.624 492.598 147.713 492.494 147.772C492.442 147.794 492.383 147.817 492.331 147.831C492.242 147.854 492.153 147.869 492.071 147.869H492.056ZM412.645 128.012H417.858V147.869H414.673C414.16 147.869 413.908 147.676 413.908 147.289V131.651L405.175 147.334C404.96 147.69 404.626 147.869 404.187 147.869H401.559C401.076 147.869 400.772 147.69 400.623 147.334L391.727 131.621V147.289C391.727 147.676 391.489 147.869 391.014 147.869H387.829V128.012H393.049C393.376 128.012 393.598 128.124 393.702 128.339L402.71 144.534H402.984L411.984 128.339C412.059 128.124 412.281 128.012 412.645 128.012ZM456.153 145.232H463.385C466.46 145.232 467.997 144.037 467.997 141.653V134.228C467.997 131.844 466.46 130.648 463.385 130.648H456.153V145.232Z" fill="white"/>
    <path d="M92.4836 112.129H85.9527V37.8711H121.748C129.004 37.8711 134.753 39.9873 138.996 44.2348C143.238 48.4749 145.359 54.2746 145.359 61.6483V69.7795C145.359 76.032 143.768 81.1706 140.586 85.1879C137.405 89.2052 133.079 91.7744 127.608 92.8883V93.5642L135.498 110.131C136.168 111.467 135.777 112.136 134.325 112.136L127.058 112.143L118.399 93.5642H94.3252V110.116C94.3252 111.453 93.7111 112.129 92.4836 112.129ZM444.331 112.129H437.804V37.8711H443.997C445.007 37.8711 445.675 38.2051 446.009 38.8735L497.21 94.9081V39.876C497.21 38.5394 497.826 37.8711 499.051 37.8711H505.578V112.129L499.89 112.143C499.296 112.143 498.739 111.928 498.22 111.497C497.863 111.2 446.172 54.9354 446.172 54.9354V110.116C446.172 111.453 445.564 112.129 444.331 112.129ZM294.093 112.129H289.237C288.012 112.129 287.395 111.453 287.395 110.116V45.4007H259.697C258.361 45.4007 257.692 44.7918 257.692 43.5591V37.8711H325.474V43.5591C325.474 44.7918 324.799 45.4007 323.462 45.4007H295.771V110.116C295.771 111.453 295.207 112.129 294.093 112.129ZM7.08757 112.129H0.556641V37.8711H36.3517C43.6082 37.8711 49.3572 39.9873 53.5995 44.2348C57.8418 48.4749 59.9626 54.2746 59.9626 61.6483V69.7795C59.9626 77.1533 57.8418 82.9527 53.5995 87.2003C49.3572 91.4404 43.6082 93.5642 36.3517 93.5642H8.92918V110.116C8.92918 111.453 8.31504 112.129 7.08757 112.129ZM388.371 112.129H367.474C360.22 112.129 354.502 110.005 350.314 105.765C346.125 101.517 344.039 95.7176 344.039 88.3438V61.6483C344.039 54.2746 346.125 48.4749 350.314 44.2348C354.502 39.9873 360.22 37.8711 367.474 37.8711H388.371C395.625 37.8711 401.351 39.9873 405.531 44.2348C409.72 48.4749 411.814 54.2746 411.814 61.6483V88.3438C411.814 95.7176 409.72 101.517 405.531 105.765C401.351 110.005 395.625 112.129 388.371 112.129ZM368.15 104.591H387.531C392.67 104.591 396.606 103.166 399.338 100.321C402.071 97.47 403.445 93.3711 403.445 88.0097V61.9825C403.445 56.6211 402.071 52.522 399.338 49.6705C396.606 46.8265 392.67 45.4007 387.531 45.4007H368.15C363.012 45.4007 359.106 46.8562 356.425 49.7597C353.744 52.6632 352.408 56.7325 352.408 61.9825V88.0097C352.408 93.2597 353.744 97.3364 356.425 100.24C359.106 103.136 363.012 104.591 368.15 104.591ZM94.3252 86.3612H120.91C126.046 86.3612 130.009 84.9355 132.799 82.0914C135.591 79.2399 136.986 75.2003 136.986 69.9503V61.9825C136.986 56.7325 135.591 52.6632 132.799 49.7597C130.009 46.8562 126.046 45.4007 120.91 45.4007H94.3252V86.3612ZM8.92918 85.8561H35.6819C40.8168 85.8561 44.7242 84.4378 47.4035 81.5863C50.0827 78.7423 51.4223 74.6954 51.4223 69.4454V61.9825C51.4223 56.6211 50.0827 52.522 47.4035 49.6705C44.7242 46.8265 40.8168 45.4007 35.6819 45.4007H8.92918V85.8561ZM210.139 67.5741C214.238 67.5741 217.565 70.9008 217.565 74.9998C217.565 79.0988 214.238 82.4256 210.139 82.4256C206.041 82.4256 202.714 79.0988 202.714 74.9998C202.714 70.9008 206.041 67.5741 210.139 67.5741Z" fill="white"/>
</svg>
